<svg xmlns="http://www.w3.org/2000/svg" width="36" height="30" viewBox="0 0 36 30"><path d="M24 0h1.7l.7.1a6.6 6.6 0 012 .8A9.3 9.3 0 0130 2c.2.2.5.2 1 .2a12.5 12.5 0 002.7-1 16.7 16.7 0 001-.5h.1V.5h.1V1l-.4.6a8.1 8.1 0 01-2.2 2.7l-.2.1H32v.1h-.1.2l.9-.1 1.7-.5.9-.3h.2v-.1h.1v.2a135.6 135.6 0 01-1.7 2l-1.2 1c-.4.4-.6.8-.7 1.3a28.5 28.5 0 01-.8 6 21.7 21.7 0 01-9.2 12.3 37.3 37.3 0 01-3 1.4 24.6 24.6 0 01-5.7 1.4l-1.2.1H10a14.8 14.8 0 01-1.8-.2 19.4 19.4 0 01-7.7-2.7L.2 26H0v-.2h.1A19.7 19.7 0 004 26a16.8 16.8 0 006-2.4l.8-.5h.1v-.1h-.2a121.5 121.5 0 01-1.3-.2 7.3 7.3 0 01-2.3-1 5.8 5.8 0 01-1.4-1.3 6.6 6.6 0 01-1.3-2l-.2-.5v-.1H4h1.5a8.7 8.7 0 001.5-.1h.2v-.1H7a5.9 5.9 0 01-1.2-.5 6.7 6.7 0 01-3.6-3.4 7.8 7.8 0 01-.7-2.8v-.6h.1l.5.3 1.3.4.8.1h.5-.2V11a37.3 37.3 0 01-.9-.8 19 19 0 01-1-1.4 9.2 9.2 0 01-1-2.3 7.1 7.1 0 01.6-4.4l.2-.7h.2L3 2a29 29 0 004 3.5 23.4 23.4 0 006 2.9 20.6 20.6 0 004.5.7h.2v-.5a7.6 7.6 0 010-2.5A8 8 0 0119 3a7 7 0 012.2-2 8.4 8.4 0 012.9-1z" fill="#5DA8DC"/></svg>