<svg viewBox="0 0 268 73" fill="none" xmlns="http://www.w3.org/2000/svg"><g clip-path="url(#clip0)" fill-rule="evenodd" clip-rule="evenodd"><path d="M30.24 37.44A3.65 3.65 0 0127 35.4l-1.06-2.39h-10.6l-1.08 2.4a3.65 3.65 0 01-3.23 2.02h-.57L15 71.95c.23.65.65.65.9 0l4.5-11.03 3.91 11c.23.65.65.65.9 0l5.24-34.45-.2-.03z" fill="url(#paint0_linear)"/><path d="M25.51 32.06h-9.73l-1.49 3.35a3.66 3.66 0 01-2.56 1.94l3.43 21.3c.23.39.65.39.9 0l4.39-6.67 4.02 6.64c.26.39.65.39.9 0l3.88-21.33A3.65 3.65 0 0127 35.41l-1.49-3.35z" fill="url(#paint1_linear)"/><path d="M27 35.41l-6.38-14.26-6.36 14.26c-.22.42-.5.79-.84 1.1l2.64 14.15c.14.2.5.25.76 0l3.55-4.7 3.54 4.67c.22.28.62.22.76 0l2.92-14.32a4.98 4.98 0 01-.59-.9z" fill="url(#paint2_linear)"/><path d="M.25 1.74C.05 1.07.45.6 1.13.6h5.6c.39 0 .75.34.87.67l4.1 16.18h.2L19.3.64a.92.92 0 01.81-.53h.87c.43 0 .7.22.82.53l7.4 16.8h.2l4.1-16.18a.97.97 0 01.87-.67h5.6c.68 0 1.04.48.87 1.15l-9.03 32.07a.9.9 0 01-.87.67h-.76a.93.93 0 01-.81-.53l-8.75-19.52h-.14l-8.7 19.52a.99.99 0 01-.8.53h-.77a.93.93 0 01-.87-.67L.25 1.74zM45.82 1.49c0-.48.4-.9.9-.9h11.5c5.88 0 10.7 4.78 10.7 10.55 0 5.9-4.82 10.74-10.64 10.74h-5V33.1c0 .48-.43.9-.9.9h-5.63a.89.89 0 01-.9-.9V1.5h-.03zM57.8 14.9a3.75 3.75 0 003.77-3.77c0-2-1.71-3.55-3.77-3.55h-4.53v7.32h4.53z" fill="#F26B32"/><path d="M84.47 1.49c0-.48.4-.9.9-.9h14.26c5.74 0 10.4 4.64 10.4 10.32 0 4.39-2.89 7.93-7.05 9.6l6.52 12.11c.34.62 0 1.38-.81 1.38h-6.36c-.4 0-.67-.22-.76-.42l-6.36-12.66h-3.29V33.1c0 .48-.42.9-.9.9h-5.68a.89.89 0 01-.9-.9l.03-31.61zm14.57 13.36c1.97 0 3.63-1.8 3.63-3.83 0-2-1.66-3.63-3.63-3.63h-7.06v7.46h7.06zM131.16.1c9.54 0 17.19 7.69 17.19 17.25 0 9.57-7.63 17.13-17.19 17.13-9.53 0-17.13-7.6-17.13-17.13S121.63.11 131.16.11zm0 26.73c5.26 0 9.54-4.3 9.54-9.5 0-5.27-4.3-9.6-9.54-9.6a9.6 9.6 0 00-9.5 9.6c0 5.2 4.3 9.5 9.5 9.5zM168.91.1c4.78 0 8.3 1.5 11.56 4.45.42.4.42.96.06 1.33l-3.72 3.85a.82.82 0 01-1.18 0 9.78 9.78 0 00-6.44-2.45c-5.4 0-9.37 4.5-9.37 9.85 0 5.29 4.03 9.7 9.4 9.7 2.25 0 4.67-.81 6.38-2.28.34-.28.96-.28 1.24.06l3.72 3.97c.33.33.28.95-.06 1.29a16.35 16.35 0 01-11.59 4.64c-9.53 0-17.24-7.6-17.24-17.13 0-9.54 7.7-17.27 17.24-17.27zM186.24 1.74c0-.62.48-1.15 1.15-1.15h5.6c.62 0 1.15.53 1.15 1.15v12.54l10.6-13.22c.2-.22.63-.47.9-.47h6.03c.9 0 1.38 1.04.87 1.77l-11.17 13.98 12.18 15.83c.54.7 0 1.78-.9 1.78h-6.58c-.34 0-.76-.2-.87-.34l-11.08-15v14.24c0 .62-.54 1.15-1.16 1.15h-5.6c-.67 0-1.15-.53-1.15-1.15l.03-31.11zM218.36 1.49c0-.48.4-.9.9-.9h19.77c.54 0 .9.42.9.9v5.2c0 .48-.39.9-.9.9h-13.22v5.9h10.89c.48 0 .9.43.9.9v5.21c0 .54-.42.9-.9.9H225.8v6.47h13.22c.54 0 .9.42.9.9v5.2c0 .48-.39.9-.9.9h-19.77a.89.89 0 01-.9-.9V1.5zM250.62 7.59h-6.83a.89.89 0 01-.9-.9v-5.2c0-.48.4-.9.9-.9h21.18c.53 0 .9.42.9.9v5.2c0 .48-.4.9-.9.9h-6.84v25.48c0 .48-.42.9-.9.9h-5.74a.93.93 0 01-.9-.9l.03-25.48z" fill="#282828"/><path d="M39.7 58.53c2.05 0 3.48-1.08 3.48-2.9v-.03c0-1.6-1.06-2.34-3.12-2.84-1.87-.45-2.31-.78-2.31-1.53v-.03c0-.63.58-1.15 1.58-1.15.76 0 1.48.25 2.23.74.14.08.28.12.45.12a.8.8 0 00.8-.79.77.77 0 00-.37-.68 5.35 5.35 0 00-3.08-.9c-1.93 0-3.32 1.15-3.32 2.82v.02c0 1.8 1.16 2.4 3.23 2.9 1.8.42 2.2.8 2.2 1.5v.02c0 .72-.67 1.22-1.73 1.22a4.21 4.21 0 01-2.72-1 .8.8 0 00-.5-.15.8.8 0 00-.47 1.44 6.05 6.05 0 003.65 1.22zm11.8-6.7a.85.85 0 00-.84-.85.84.84 0 00-.85.85v3.37c0 1.14-.68 1.8-1.65 1.8-1 0-1.57-.63-1.57-1.77v-3.4a.84.84 0 10-1.68 0v3.9c0 1.7.96 2.82 2.61 2.82 1.14 0 1.82-.6 2.29-1.3v.38c0 .47.39.84.85.84.47 0 .84-.38.84-.84v-5.8zm2.1 8.02v-8.02c0-.47.36-.85.83-.85s.85.38.85.85v.46a2.93 2.93 0 012.5-1.38c1.72 0 3.4 1.36 3.4 3.8v.04c0 2.43-1.67 3.8-3.4 3.8a3 3 0 01-2.5-1.3v2.6c0 .48-.38.84-.85.84a.83.83 0 01-.83-.84zm3.78-2.76c1.15 0 2.1-.9 2.1-2.34v-.03c0-1.42-.97-2.35-2.1-2.35-1.14 0-2.14.95-2.14 2.35v.03c0 1.4 1 2.34 2.14 2.34zm6.8-2.87h3.76c-.11-1.09-.75-1.93-1.86-1.93-1.03 0-1.75.79-1.9 1.93zm4.73 3.37c-.67.6-1.5.97-2.64.97a3.66 3.66 0 01-3.76-3.8v-.03c0-2.1 1.49-3.82 3.58-3.82 2.34 0 3.49 1.92 3.49 3.61 0 .48-.36.8-.8.8H64.2c.18 1.2 1.03 1.87 2.11 1.87.7 0 1.26-.25 1.74-.64.12-.1.23-.15.43-.15.37 0 .66.29.66.68 0 .2-.1.39-.22.51zm2.39.04a.84.84 0 001.68 0v-2.16c0-1.74.82-2.65 2.01-2.86a.79.79 0 00.67-.8c0-.5-.3-.84-.84-.84-.73 0-1.45.7-1.84 1.61v-.75a.84.84 0 10-1.68 0v5.8zm5.7-8.45c0 .5.42.83.96.83s.96-.33.96-.83v-.09c0-.5-.42-.81-.96-.81s-.96.31-.96.81v.09zm.13 8.45c0 .47.37.84.83.84.47 0 .85-.37.85-.84v-5.8a.84.84 0 10-1.68 0v5.8zm7.36.93a3.8 3.8 0 01-3.89-3.79v-.02c0-2.1 1.67-3.84 3.92-3.84a3.8 3.8 0 013.9 3.8v.04a3.83 3.83 0 01-3.93 3.81zm.03-1.47c1.36 0 2.22-1.05 2.22-2.32v-.02c0-1.3-.93-2.36-2.25-2.36-1.35 0-2.2 1.05-2.2 2.33v.03c0 1.27.92 2.34 2.23 2.34zm5.6.54c0 .47.38.84.84.84.47 0 .84-.38.84-.84v-2.16c0-1.74.82-2.65 2.02-2.86a.79.79 0 00.66-.8c0-.5-.3-.84-.83-.84-.73 0-1.46.7-1.85 1.61v-.75a.84.84 0 10-1.68 0v5.8zm12.37.2c.17.44.48.7.9.7h.16c.42 0 .73-.26.89-.7l2.16-6.35 2.17 6.35c.15.44.46.7.87.7h.17c.42 0 .74-.27.89-.7l2.87-8.05c.04-.1.09-.24.09-.35a.84.84 0 00-.85-.82c-.42 0-.7.26-.83.61l-2.24 6.7-2.2-6.66c-.12-.4-.42-.68-.85-.68h-.13c-.43 0-.72.28-.86.68l-2.2 6.65-2.23-6.68a.87.87 0 00-.84-.62.85.85 0 00-.88.83c0 .11.03.24.07.34l2.88 8.05zm15.57.73a3.8 3.8 0 01-3.89-3.79v-.02c0-2.1 1.67-3.84 3.92-3.84a3.8 3.8 0 013.9 3.8v.04a3.83 3.83 0 01-3.93 3.81zm.03-1.47c1.36 0 2.22-1.05 2.22-2.32v-.02c0-1.3-.93-2.36-2.25-2.36-1.35 0-2.2 1.05-2.2 2.33v.03c0 1.27.92 2.34 2.23 2.34zm5.6.54c0 .48.38.84.84.84.47 0 .84-.38.84-.84v-2.16c0-1.74.82-2.65 2.02-2.86a.79.79 0 00.66-.8c0-.5-.3-.84-.83-.84-.73 0-1.46.7-1.85 1.61v-.75a.84.84 0 10-1.68 0v5.8zm12.74-8.6v8.6c0 .48-.38.84-.84.84a.83.83 0 01-.84-.84v-.45a2.93 2.93 0 01-2.5 1.37c-1.72 0-3.4-1.37-3.4-3.8v-.03c0-2.43 1.65-3.8 3.4-3.8a3 3 0 012.5 1.29v-3.18c0-.48.37-.84.83-.84.47 0 .85.36.85.84zm-3.78 3.34c-1.15 0-2.11.89-2.11 2.35v.03c0 1.41.97 2.34 2.11 2.34 1.12 0 2.12-.94 2.12-2.34v-.03c0-1.42-1-2.35-2.12-2.35zm6.08 5.25v-8.08c0-.49.38-.86.86-.86h2.97c2.28 0 3.7 1.29 3.7 3.25v.03c0 2.17-1.75 3.31-3.9 3.31h-1.92v2.35c0 .47-.38.85-.85.85a.84.84 0 01-.86-.85zm1.7-3.89h2c1.29 0 2.1-.72 2.1-1.73v-.03c0-1.14-.83-1.74-2.1-1.74h-2v3.5zm7.38 3.9a.84.84 0 001.68 0v-2.16c0-1.74.82-2.65 2.01-2.86a.79.79 0 00.67-.8c0-.5-.3-.84-.83-.84-.74 0-1.46.7-1.85 1.61v-.75a.84.84 0 10-1.68 0v5.8zm6.75-3.41h3.76c-.11-1.08-.75-1.93-1.86-1.93-1.03 0-1.75.79-1.9 1.93zm4.73 3.37c-.66.6-1.5.97-2.64.97a3.66 3.66 0 01-3.76-3.8v-.03c0-2.1 1.49-3.82 3.58-3.82 2.34 0 3.49 1.92 3.49 3.61 0 .48-.36.8-.8.8h-4.59c.18 1.2 1.03 1.87 2.11 1.87.71 0 1.26-.25 1.74-.64.12-.1.23-.15.43-.15.37 0 .66.29.66.68 0 .2-.1.39-.22.51zm4.9.95c1.53 0 2.72-.77 2.72-2.3v-.04c0-1.32-1.2-1.8-2.27-2.13-.86-.28-1.65-.5-1.65-1.05V53c0-.42.37-.73 1.02-.73a4 4 0 011.72.5c.11.06.2.09.34.09.39 0 .7-.3.7-.68 0-.3-.18-.52-.41-.64-.71-.38-1.53-.6-2.3-.6-1.46 0-2.62.85-2.62 2.24v.03c0 1.4 1.21 1.84 2.3 2.15.85.26 1.63.46 1.63 1.02v.03c0 .49-.41.8-1.14.8-.66 0-1.4-.24-2.1-.71a.73.73 0 00-.37-.1c-.39 0-.68.3-.68.68 0 .28.14.48.32.58a5 5 0 002.8.88zm6.82 0c1.53 0 2.72-.77 2.72-2.3v-.04c0-1.32-1.2-1.8-2.28-2.13-.86-.28-1.65-.5-1.65-1.05V53c0-.42.38-.73 1.03-.73a4 4 0 011.72.5c.11.06.2.09.33.09.4 0 .7-.3.7-.68 0-.3-.17-.52-.4-.64-.71-.38-1.53-.6-2.31-.6-1.46 0-2.61.85-2.61 2.24v.03c0 1.4 1.2 1.84 2.29 2.15.86.26 1.64.46 1.64 1.02v.03c0 .49-.42.8-1.14.8-.67 0-1.4-.24-2.11-.71a.73.73 0 00-.36-.1c-.39 0-.68.3-.68.68 0 .28.14.48.32.58a5 5 0 002.79.88zm8.8-.92v-8.08c0-.49.37-.86.86-.86h2.97c2.28 0 3.7 1.3 3.7 3.25v.03c0 2.18-1.75 3.31-3.9 3.31h-1.92v2.35c0 .47-.38.85-.85.85a.84.84 0 01-.86-.85zm1.7-3.89h2c1.28 0 2.09-.72 2.09-1.73v-.03c0-1.14-.82-1.74-2.1-1.74h-1.98v3.5zm8.57.49h3.77c-.12-1.08-.75-1.93-1.86-1.93-1.03 0-1.75.8-1.9 1.93zm4.74 3.37c-.67.6-1.5.97-2.64.97a3.66 3.66 0 01-3.76-3.8v-.03c0-2.1 1.48-3.82 3.58-3.82 2.33 0 3.48 1.92 3.48 3.61 0 .48-.36.81-.79.81h-4.6c.19 1.2 1.03 1.86 2.12 1.86.7 0 1.26-.25 1.73-.64.13-.1.24-.15.43-.15.38 0 .67.29.67.68 0 .2-.1.39-.22.51zm2.39.04c0 .48.37.84.83.84.47 0 .84-.38.84-.84v-2.16c0-1.74.82-2.65 2.02-2.86a.79.79 0 00.66-.8c0-.5-.3-.84-.83-.84-.73 0-1.46.7-1.84 1.61v-.75a.84.84 0 10-1.68 0v5.8zm6.1 0c0 .46.38.84.84.84.47 0 .84-.38.84-.84v-5.12h1.28c.39 0 .7-.3.7-.7 0-.38-.3-.69-.7-.69h-1.3v-.4c0-.76.33-1.11.97-1.11.1 0 .25.01.34.03.4.01.71-.3.71-.7a.7.7 0 00-.58-.7 4.83 4.83 0 00-.85-.06c-.72 0-1.26.2-1.65.58-.39.4-.6 1-.6 1.8v.55h-.29c-.39 0-.7.32-.7.7 0 .4.31.7.7.7h.3v5.12zm8.2.93a3.8 3.8 0 01-3.9-3.79v-.02c0-2.1 1.67-3.84 3.92-3.84a3.8 3.8 0 013.9 3.8v.04a3.83 3.83 0 01-3.93 3.81zm.02-1.47c1.36 0 2.22-1.05 2.22-2.32v-.02c0-1.3-.93-2.36-2.25-2.36-1.34 0-2.2 1.05-2.2 2.33v.03c0 1.27.93 2.34 2.23 2.34zm5.61.54c0 .48.38.84.84.84.47 0 .84-.38.84-.84v-2.16c0-1.74.82-2.65 2.01-2.86a.79.79 0 00.67-.8c0-.5-.3-.84-.83-.84-.74 0-1.46.7-1.85 1.61v-.75a.84.84 0 10-1.68 0v5.8zm5.74 0c0 .48.37.84.83.84.47 0 .84-.36.84-.84v-3.37c0-1.12.64-1.82 1.57-1.82s1.49.64 1.49 1.78v3.41c0 .48.37.84.84.84.46 0 .84-.36.84-.84v-3.37c0-1.18.65-1.82 1.57-1.82.94 0 1.48.63 1.48 1.8v3.4c0 .47.38.83.85.83s.83-.36.83-.84v-3.91c0-1.8-.97-2.8-2.57-2.8-1.1 0-1.88.5-2.47 1.29a2.32 2.32 0 00-2.2-1.3c-1.12 0-1.75.62-2.23 1.27v-.35a.84.84 0 10-1.68 0v5.8zm15.3.92c-1.38 0-2.6-.8-2.6-2.26v-.03c0-1.58 1.23-2.36 3.02-2.36.82 0 1.4.13 1.98.3v-.18c0-1.04-.64-1.6-1.82-1.6-.64 0-1.17.12-1.63.3a.94.94 0 01-.26.04.7.7 0 01-.7-.7c0-.3.2-.56.45-.66.7-.26 1.4-.43 2.36-.43 1.1 0 1.92.3 2.43.82.54.53.79 1.3.79 2.26v3.61a.8.8 0 01-.82.8c-.48 0-.82-.33-.82-.7v-.28c-.5.6-1.26 1.07-2.39 1.07zm.47-1.22c1.1 0 1.95-.64 1.95-1.57v-.5c-.43-.17-1-.3-1.66-.3-1.09 0-1.72.47-1.72 1.23v.03c0 .7.62 1.1 1.43 1.1zm5.56.3c0 .47.38.84.83.84.48 0 .85-.37.85-.84v-3.37c0-1.14.68-1.82 1.65-1.82 1 0 1.57.65 1.57 1.8v3.4c0 .46.38.83.85.83s.83-.37.83-.84v-3.91c0-1.7-.95-2.8-2.6-2.8-1.15 0-1.83.59-2.3 1.27v-.36a.84.84 0 10-1.68 0v5.8zm12 .93c1.22 0 2.01-.41 2.66-1.04.15-.12.24-.3.24-.53 0-.4-.32-.73-.72-.73-.2 0-.37.1-.46.18-.46.39-.97.65-1.64.65-1.3 0-2.2-1.04-2.2-2.34v-.03c0-1.28.9-2.33 2.13-2.33.67 0 1.14.26 1.57.62.11.08.3.17.5.17.43 0 .78-.34.78-.77a.8.8 0 00-.27-.58 3.7 3.7 0 00-2.57-.92 3.78 3.78 0 00-3.81 3.84v.02a3.74 3.74 0 003.79 3.8zm5.6-4.34h3.75c-.1-1.09-.75-1.93-1.86-1.93-1.02 0-1.75.79-1.9 1.93zm4.73 3.37c-.67.6-1.5.97-2.64.97a3.66 3.66 0 01-3.76-3.8v-.03c0-2.1 1.48-3.82 3.58-3.82 2.33 0 3.48 1.92 3.48 3.61 0 .48-.36.8-.79.8h-4.6c.19 1.2 1.03 1.87 2.12 1.87.7 0 1.26-.25 1.73-.64.13-.1.24-.15.43-.15.38 0 .67.29.67.68 0 .2-.1.39-.22.51z" fill="#5E5E5E"/></g><defs><linearGradient id="paint0_linear" x1="10.14" y1="72.64" x2="10.43" y2="33.02" gradientUnits="userSpaceOnUse"><stop stop-color="#DD5F29"/><stop offset=".26" stop-color="#F26B32"/><stop offset="1" stop-color="#FAC932"/></linearGradient><linearGradient id="paint1_linear" x1="11.44" y1="59.08" x2="11.6" y2="32.06" gradientUnits="userSpaceOnUse"><stop stop-color="#DD5F29"/><stop offset=".26" stop-color="#F26B32"/><stop offset="1" stop-color="#FAC932"/></linearGradient><linearGradient id="paint2_linear" x1="13.19" y1="50.98" x2="13.42" y2="21.15" gradientUnits="userSpaceOnUse"><stop stop-color="#DD5F29"/><stop offset=".26" stop-color="#F26B32"/><stop offset="1" stop-color="#FAC932"/></linearGradient><clipPath id="clip0"><path fill="#fff" d="M0 0h267.22v72.57H0z"/></clipPath></defs></svg>